<svg id="Capa_1" enable-background="new 0 0 512 512" height="512" viewBox="0 0 512 512" width="512" xmlns="http://www.w3.org/2000/svg"><g><path d="m421 272c0-42.021-28.87-77.576-68.877-87.125l-13.797-112.2c-5.18-41.431-40.572-72.675-82.326-72.675s-77.146 31.244-82.329 72.706l-13.794 112.169c-40.007 9.549-68.877 45.104-68.877 87.125 0 49.626 40.374 90 90 90 12.613 0 25.075-2.656 36.516-7.73 10.903 5.675 24.108 8.87 38.549 8.87 14.398 0 27.566-3.19 38.443-8.858 11.435 5.066 23.889 7.718 36.492 7.718 49.626 0 90-40.374 90-90zm-90 60c-4.04 0-8.054-.412-11.98-1.209 1.845-3.474 3.285-7.164 4.256-11.049 2.612-10.446 11.956-17.742 22.724-17.742 8.284 0 15-6.716 15-15s-6.716-15-15-15c-24.56 0-45.872 16.64-51.828 40.466-3.551 14.204-22.243 20.674-38.106 20.674-15.927 0-34.687-6.47-38.237-20.673-5.957-23.827-27.269-40.467-51.829-40.467-8.284 0-15 6.716-15 15s6.716 15 15 15c10.768 0 20.112 7.296 22.724 17.742.971 3.885 2.413 7.575 4.259 11.049-3.927.797-7.942 1.209-11.983 1.209-33.084 0-60-26.916-60-60 0-30.674 23.184-56.173 53.929-59.313 6.963-.711 12.51-6.144 13.364-13.092l15.15-123.199c3.306-26.45 25.901-46.396 52.557-46.396s49.25 19.947 52.554 46.368l15.154 123.228c.854 6.948 6.4 12.381 13.364 13.092 30.744 3.139 53.928 28.638 53.928 59.312 0 33.084-26.916 60-60 60z"/><path d="m196 392c-5.405 0-10.393 2.908-13.055 7.613-5.904 10.434-10.645 18.719-14.455 25.376-16.169 28.259-17.49 30.568-17.49 42.011 0 24.813 20.187 45 45 45s45-20.187 45-45c0-11.523-1.981-14.979-17.399-41.877-3.83-6.681-8.597-14.997-14.546-25.51-2.662-4.705-7.65-7.613-13.055-7.613zm0 90c-8.271 0-15-6.729-15-15 0-2.347 0-2.347.695-3.892 2.076-4.614 8.862-16.273 14.311-25.801 14.988 26.149 14.994 26.222 14.994 29.693 0 8.271-6.729 15-15 15z"/><path d="m316 392c-5.405 0-10.393 2.908-13.055 7.613-5.904 10.434-10.645 18.719-14.455 25.376-16.169 28.259-17.49 30.568-17.49 42.011 0 24.813 20.187 45 45 45s45-20.187 45-45c0-11.523-1.981-14.979-17.399-41.877-3.83-6.681-8.597-14.997-14.546-25.51-2.662-4.705-7.65-7.613-13.055-7.613zm0 90c-8.271 0-15-6.729-15-15 0-2.347 0-2.347.695-3.892 2.076-4.614 8.862-16.273 14.311-25.801 14.988 26.149 14.994 26.222 14.994 29.693 0 8.271-6.729 15-15 15z"/></g></svg>