<?xml version="1.0" encoding="iso-8859-1"?>
<!-- Generator: Adobe Illustrator 19.0.0, SVG Export Plug-In . SVG Version: 6.00 Build 0)  -->
<svg version="1.1" id="Capa_1" xmlns="http://www.w3.org/2000/svg" xmlns:xlink="http://www.w3.org/1999/xlink" x="0px" y="0px"
	 viewBox="0 0 512 512" style="enable-background:new 0 0 512 512;" xml:space="preserve">
<g>
	<g>
		<path d="M384,0H128c-23.521,0-42.667,19.135-42.667,42.667v64c0,15.723,8.645,29.329,21.333,36.73v325.936
			c0,23.531,19.146,42.667,42.667,42.667h213.333c23.521,0,42.667-19.135,42.667-42.667V143.397
			c12.689-7.401,21.333-21.008,21.333-36.73v-64C426.667,19.135,407.521,0,384,0z M298.667,21.333h42.667V128h-42.667V21.333z
			 M234.667,21.333h42.667V128h-42.667V21.333z M170.667,21.333h42.667V128h-42.667V21.333z M106.667,106.667v-64
			c0-11.76,9.563-21.333,21.333-21.333h21.333V128H128C116.229,128,106.667,118.427,106.667,106.667z M235.361,441.134
			c-6.777,4.224-14.214,6.866-22.027,6.866c-23.521,0-42.667-19.135-42.667-42.667s19.146-42.667,42.667-42.667
			c22.34,0,40.527,17.309,42.372,38.223C244.486,411.129,237.087,425.233,235.361,441.134z M298.667,490.667
			C275.146,490.667,256,471.531,256,448s19.146-42.667,42.667-42.667c23.521,0,42.667,19.135,42.667,42.667
			S322.187,490.667,298.667,490.667z M384,469.333c0,11.76-9.563,21.333-21.333,21.333h-16.646
			c10.234-11.349,16.646-26.216,16.646-42.667c0-35.292-28.708-64-64-64c-8.424,0-16.43,1.729-23.802,4.699
			c-7.376-27.198-32.03-47.366-61.531-47.366c-35.292,0-64,28.708-64,64c0,35.292,28.708,64,64,64
			c8.224,0,16.201-1.784,23.746-4.879c2.654,9.901,7.56,18.813,14.233,26.212H149.333c-11.771,0-21.333-9.573-21.333-21.333v-320
			h256V469.333z M405.333,106.667c0,11.76-9.563,21.333-21.333,21.333h-21.333V21.333H384c11.771,0,21.333,9.573,21.333,21.333
			V106.667z"/>
	</g>
</g>
<g>
</g>
<g>
</g>
<g>
</g>
<g>
</g>
<g>
</g>
<g>
</g>
<g>
</g>
<g>
</g>
<g>
</g>
<g>
</g>
<g>
</g>
<g>
</g>
<g>
</g>
<g>
</g>
<g>
</g>
</svg>
