<?xml version="1.0" standalone="no"?>
<!DOCTYPE svg PUBLIC "-//W3C//DTD SVG 20010904//EN"
 "http://www.w3.org/TR/2001/REC-SVG-20010904/DTD/svg10.dtd">
<svg version="1.0" xmlns="http://www.w3.org/2000/svg"
 width="700.000000pt" height="700.000000pt" viewBox="0 0 700.000000 700.000000"
 preserveAspectRatio="xMidYMid meet">
<metadata>
Created by potrace 1.11, written by Peter Selinger 2001-2013
</metadata>
<g transform="translate(0.000000,700.000000) scale(0.100000,-0.100000)"
fill="#000000" stroke="none">
<path d="M4050 6128 l0 -543 162 163 163 162 162 -162 163 -163 0 543 0 542
-325 0 -325 0 0 -542z"/>
<path d="M2627 6123 c-4 -3 -7 -53 -7 -110 l0 -103 440 0 440 0 0 110 0 110
-433 0 c-239 0 -437 -3 -440 -7z"/>
<path d="M2190 6015 l0 -105 105 0 105 0 0 105 0 105 -105 0 -105 0 0 -105z"/>
<path d="M1097 6013 c-4 -3 -7 -152 -7 -330 l0 -323 -49 0 -49 0 -7 -662 c-4
-365 -5 -1153 -3 -1753 l3 -1090 107 -212 108 -213 0 -220 0 -220 110 0 110 0
0 215 0 215 110 220 110 220 0 1475 0 1475 110 0 110 0 0 -600 0 -600 110 0
110 0 0 660 c0 724 1 714 -59 744 -24 13 -66 16 -206 16 l-175 0 0 165 0 165
-55 0 -55 0 0 330 0 330 -213 0 c-118 0 -217 -3 -220 -7z"/>
<path d="M2190 5580 l0 -110 655 0 655 0 0 110 0 110 -655 0 -655 0 0 -110z"/>
<path d="M3785 4911 c-11 -5 -29 -19 -40 -31 -19 -21 -20 -36 -20 -287 l0
-265 33 -29 c30 -27 39 -29 107 -29 l75 0 0 -165 0 -165 -155 -207 c-86 -115
-160 -224 -165 -243 -16 -56 -13 -2962 2 -3014 16 -53 84 -121 134 -135 59
-17 2713 -15 2768 1 53 16 118 81 134 134 18 61 17 2973 -1 3024 -7 19 -81
126 -165 237 l-152 202 0 166 0 165 76 0 c73 0 77 1 110 34 l35 35 -3 260 -3
261 -28 27 -27 28 -1348 2 c-741 1 -1356 -2 -1367 -6z m2313 -1647 c47 -19 88
-58 113 -106 18 -36 19 -74 19 -1081 l0 -1044 -23 -44 c-13 -24 -43 -57 -66
-74 l-43 -30 -936 -3 c-618 -2 -949 1 -972 7 -43 13 -94 61 -121 113 -18 36
-19 71 -19 1073 0 1133 -3 1074 58 1139 15 16 45 37 67 47 38 18 86 19 963 19
812 0 927 -2 960 -16z"/>
<path d="M4920 2515 l0 -215 -215 0 -215 0 0 -220 0 -220 215 0 215 0 2 -217
3 -218 218 -3 217 -2 0 220 0 220 220 0 220 0 -2 218 -3 217 -217 3 -218 2 0
215 0 215 -220 0 -220 0 0 -215z"/>
<path d="M2190 2950 l0 -110 435 0 435 0 0 110 0 110 -435 0 -435 0 0 -110z"/>
<path d="M2190 2520 l0 -110 435 0 435 0 0 110 0 110 -435 0 -435 0 0 -110z"/>
<path d="M2190 2080 l0 -110 435 0 435 0 0 110 0 110 -435 0 -435 0 0 -110z"/>
<path d="M2190 1640 l0 -110 435 0 435 0 0 110 0 110 -435 0 -435 0 0 -110z"/>
</g>
</svg>
